/* XPM */
static char *collectible_xpm[] = {
/* columns rows colors chars-per-pixel */
"32 32 3 1",
"  c None",
". c #FFD700", /* Altın Sarısı */
"+ c #FFA500", /* Turuncu */
/* pixels */
"                                ",
"                                ",
"                                ",
"                                ",
"                                ",
"               ..               ",
"               ..               ",
"       ..     ....     ..       ",
"        ..   ......   ..        ",
"         .. ......... ..        ",
"     ......+........+......     ",
"      ....................      ",
"       ......++++++......       ",
"        .....++++++.....        ",
"         ....++++++....         ",
"          ...++++++...          ",
"         ....++++++....         ",
"        .....++++++.....        ",
"       ......++++++......       ",
"      ....................      ",
"     ......+........+......     ",
"         .. ......... ..        ",
"        ..   ......   ..        ",
"       ..     ....     ..       ",
"               ..               ",
"               ..               ",
"                                ",
"                                ",
"                                ",
"                                ",
"                                ",
"                                "
};
