/* XPM */
static char *exit_xpm[] = {
/* columns rows colors chars-per-pixel */
"32 32 3 1",
"  c None",
". c #00FF00", /* Canlı Yeşil */
"+ c #007F00", /* Koyu Yeşil - Gölgelendirme */
/* pixels */
"                                ",
"                                ",
"                                ",
"           ++++++++++++         ",
"          +............+        ",
"         +..............+       ",
"        +................+      ",
"       +..................+     ",
"       +...++++++++++....+      ",
"       +...+        +....+      ",
"       +...+        +....+      ",
"       +...+        +....+      ",
"       +...+        +....+      ",
"       +...+   ..   +....+      ",
"       +...+  ....  +....+      ",
"       +...+ ...... +....+      ",
"       +...+..  .. ..+..+       ",
"       +...+      ......+       ",
"       +...+       ....+        ",
"       +...+        ..+         ",
"       +...+          +         ",
"       +...++++++++++.+         ",
"       +................+       ",
"        +................+      ",
"         +..............+       ",
"          +............+        ",
"           ++++++++++++         ",
"                                ",
"                                ",
"                                ",
"                                ",
"                                "
};
