/* XPM */
static char *player_xpm[] = {
/* columns rows colors chars-per-pixel */
"32 32 4 1",
"  c None",
". c #0000FF", /* Mavi - Giysi */
"+ c #FFD700", /* Altın Sarısı - Kemer veya detay */
"* c #1E90FF", /* Daha açık mavi - Gölgelendirme */
/* pixels */
"                                ",
"                                ",
"              ....              ",
"             ******             ",
"            ********            ",
"           ***....***           ",
"          ***......***          ",
"         ***........***         ",
"         ***........***         ",
"         ***..++++..***         ",
"         ***.++++++.***         ",
"          ***++++++.***         ",
"           ***+++++.***         ",
"           ***+++++***          ",
"           ***+++++***          ",
"           ***+++++***          ",
"           ***+++++***          ",
"           ***+++++***          ",
"           ***+++++***          ",
"           **.......**          ",
"           **.......**          ",
"           **.......**          ",
"           ***.....***          ",
"            ***...***           ",
"             *******            ",
"              *****             ",
"               ***              ",
"              *...*             ",
"             *.....*            ",
"                                ",
"                                ",
"                                "
};
