/* XPM */
static char *wall_xpm[] = {
/* columns rows colors chars-per-pixel */
"32 32 3 1",
"  c None",
". c #1E3A78", /* Koyu Mavi - Duvar */
"+ c #888888", /* Açık Gri - Harç */
/* pixels */
"                                ",
"                                ",
"  ............                  ",
"  ............                  ",
"  ............                  ",
"  ............                  ",
"                                ",
"                                ",
"                                ",
"                                ",
"                                ",
"                                ",
"                                ",
"                                ",
"                                ",
"                                ",
"                                ",
"                                ",
"                                ",
"                                ",
"                                ",
"                                ",
"                                ",
"                                ",
"                                ",
"                                ",
"                                ",
"                                ",
"                                ",
"                                ",
"                                ",
"                                ",
"                                "
};
